<svg xmlns="http://www.w3.org/2000/svg" version="1.1" xmlns:xlink="http://www.w3.org/1999/xlink" xmlns:svgjs="http://svgjs.dev/svgjs" width="100%" height="100%" viewBox="0 0 1000 600"><rect width="1000" height="600" x="0" y="0" fill="#161323"/><g><rect width="333.3333333333333" height="333.3333333333333" y="77.77780045403293" fill="#ac8dd4" transform="matrix(2.25000013732911,0,0,2.25000013732911,0,-250.00003738403575)" x="55.555564880371094"/><path d="M282.67373270621863 244.4592054299267L282.67373270621863 244.4592054299267Q282.67373270621863 263.58176872008505 276.71268674231123 277.6876101594304Q270.781150906938 291.8229617273098 259.9509337348885 301.0596319585128Q249.0912064343047 310.3258123182501 234.01153075333102 314.87037211251607Q218.93185507235734 319.44444203531634 200.87165640943 319.44444203531634L200.87165640943 319.44444203531634Q191.95959759210308 319.44444203531634 181.2179108056561 318.7066888219615Q170.4762240192091 317.96893560860656 161.77073610162154 315.8442063541445L161.77073610162154 315.8442063541445L161.77073610162154 173.04469437717472Q170.4762240192091 170.91996512271265 181.2179108056561 170.18221190935782Q191.95959759210308 169.44445869600293 200.87165640943 169.44445869600293L200.87165640943 169.44445869600293Q218.93185507235734 169.44445869600293 234.01153075333102 174.01852861880315Q249.0912064343047 178.59259854160342 259.9509337348885 187.82926877280644Q270.781150906938 197.0659390040095 276.71268674231123 211.2012905718889Q282.67373270621863 225.33664213976832 282.67373270621863 244.4592054299267ZM202.5832438644133 301.38424337238894L202.5832438644133 301.38424337238894Q231.88680149886898 301.38424337238894 246.34676448062456 286.422608205552Q260.7772173338459 271.4314629101809 260.7772173338459 244.4592054299267L260.7772173338459 244.4592054299267Q260.7772173338459 217.45743782113826 246.34676448062456 202.49580265430134Q231.88680149886898 187.5046573589303 202.5832438644133 187.5046573589303L202.5832438644133 187.5046573589303Q193.84824581829156 187.5046573589303 189.06760499575196 187.71122825866965Q184.28696417321237 187.917799158409 182.3983159470239 188.15388018668258L182.3983159470239 188.15388018668258L182.3983159470239 300.76453067317084Q184.28696417321237 300.97110157291024 189.06760499575196 301.17767247264965Q193.84824581829156 301.38424337238894 202.5832438644133 301.38424337238894Z " fill="#ffffff" transform="matrix(2.25000013732911,0,0,2.25000013732911,0,-250.00003738403575)"/><path d="MNaN 244.4444580078119 " fill="black" transform="matrix(2.25000013732911,0,0,2.25000013732911,0,-250.00003738403575)"/></g></svg>